<?xml version="1.0" standalone="no"?>
<!DOCTYPE svg PUBLIC "-//W3C//DTD SVG 20010904//EN"
 "http://www.w3.org/TR/2001/REC-SVG-20010904/DTD/svg10.dtd">
<svg version="1.0" xmlns="http://www.w3.org/2000/svg"
 width="225.000000pt" height="225.000000pt" viewBox="0 0 225.000000 225.000000"
 preserveAspectRatio="xMidYMid meet">
<metadata>
Created by potrace 1.14, written by Peter Selinger 2001-2017
</metadata>
<g transform="translate(0.000000,225.000000) scale(0.100000,-0.100000)"
fill="#000000" stroke="none">
<path d="M946 2145 c-330 -63 -600 -265 -749 -560 -38 -76 -81 -196 -93 -260
-10 -57 -14 -377 -4 -395 4 -8 10 -28 13 -45 20 -111 95 -275 178 -384 162
-215 362 -342 644 -407 17 -4 93 -8 170 -10 143 -2 245 11 335 42 25 9 54 19
65 23 139 49 332 191 425 311 19 25 37 47 40 50 14 14 62 95 92 156 36 73 67
167 91 273 14 63 17 281 5 326 -3 11 -9 40 -13 65 -21 126 -123 350 -191 417
-8 8 -14 18 -14 22 0 12 -130 137 -195 186 -105 82 -287 160 -440 190 -72 14
-282 14 -359 0z"/>
</g>
</svg>
