<svg width="300" height="300" viewBox="0 0 300 300" fill="none" xmlns="http://www.w3.org/2000/svg">
<path d="M140 37V57H157V37H140Z" fill="#2A2A2A"/>
<path d="M204 72.4L216.6 60L228 71.6L215.4 84L204 72.4Z" fill="#2A2A2A"/>
<path d="M67 73.4L80.4 87L92 75.6L78.6 62L67 73.4Z" fill="#2A2A2A"/>
<path fill-rule="evenodd" clip-rule="evenodd" d="M114 193.401V258.001H185V193.201L190.1 189.401C206.4 177.401 217.1 154.101 215.6 133.301C214.4 116.201 207.5 101.501 195 89.6009C174.3 69.9009 145.8 65.5009 120 78.1009C113.1 81.5009 109.9 83.9009 103 90.9009C93.7 100.301 89.5 107.101 85.9 119.001C83.2 127.901 82.7 143.201 84.9 152.001C88.3 165.701 97.2 179.901 107.6 188.201L114 193.401ZM168 203.001V241.001H131V203.001H168ZM184.8 171.601C177.8 178.901 169.6 183.601 160.3 185.501C142.3 189.301 126 184.201 113.2 170.601C95.1 151.501 95.7 121.201 114.4 102.401C124.4 92.4009 135.1 88.0009 149.6 88.0009C163.6 88.0009 174.8 92.6009 184.5 102.401C194.3 112.301 199 123.601 199 137.001C199 150.201 194.3 161.801 184.8 171.601Z" fill="#2A2A2A"/>
<path d="M203.5 198L210 204.5L216.4 211L222.2 205.3L228 199.5L215 186.5L209.3 192.3L203.5 198Z" fill="#2A2A2A"/>
<path d="M75 203.5L69.6 198L81.4 186L93 197.4L87.3 203.2C84.1 206.4 81.3 209 81 209C80.7 209 78 206.5 75 203.5Z" fill="#2A2A2A"/>
<path d="M49 132V149H70V132H49Z" fill="#2A2A2A"/>
<path d="M229 132H250V149H229V132Z" fill="#2A2A2A"/>
</svg>
