<svg width="658" height="114" viewBox="0 0 658 114" fill="none" xmlns="http://www.w3.org/2000/svg">
<circle cx="54.3987" cy="54.3987" r="54.3987" fill="black"/>
<path d="M61.2344 31.6096H56.3759C47.4687 31.6096 42.7837 36.121 42.7837 42.7726C42.7837 50.2917 46.0227 53.8199 52.6742 58.3313L58.1689 62.0331L42.3788 85.6315H30.5796L44.7502 64.5201C36.5949 58.6784 32.0256 53.0101 32.0256 43.4088C32.0256 31.3782 40.4123 23.165 56.3181 23.165H72.1082V85.5737H61.2344V31.6096Z" fill="white"/>
<path d="M138.308 13.2822H192.289V95.1976H178.028V24.3614H152.569V95.1976H138.308V13.2822Z" fill="black"/>
<path d="M216.996 35.9121L217.703 43.5733C221.474 37.7979 226.896 34.7335 233.497 34.7335C246.697 34.7335 255.891 45.6948 255.891 65.4959C255.891 85.4149 246.462 96.3763 232.789 96.3763C226.778 96.3763 221.592 93.5476 218.056 88.2437V112.288H204.031V35.9121H216.996ZM229.253 85.2971C237.386 85.2971 241.393 79.286 241.393 65.4959C241.393 51.8237 237.622 45.8127 229.961 45.8127C222.064 45.8127 218.056 51.8237 218.056 65.6138C218.056 79.286 221.828 85.2971 229.253 85.2971Z" fill="black"/>
<path d="M309.006 54.7703V80.7004C309.006 85.5328 309.242 90.3652 309.713 95.1976H296.041C295.569 94.019 295.098 92.0153 294.98 90.4831H294.391C291.68 93.3118 288.144 96.0227 279.893 96.0227C269.05 96.0227 261.742 89.3045 261.742 77.2823C261.742 65.2602 271.289 58.1884 292.741 58.1884H294.98V54.8882C294.98 48.5235 291.916 46.1663 285.197 46.1663C278.008 46.1663 269.757 49.2307 265.986 52.0595V40.3909C270.229 37.9158 277.536 34.9692 286.847 34.9692C301.698 34.9692 309.006 40.3909 309.006 54.7703ZM294.98 81.054V67.4996H292.976C280.954 67.4996 276.122 69.9748 276.122 76.9287C276.122 82.2326 279.068 85.7685 284.962 85.7685C289.912 85.7685 293.212 83.647 294.98 81.054Z" fill="black"/>
<path d="M355.053 95.1976L334.309 66.0853V95.1976H320.283V35.9121H334.309V63.2565L354.11 35.9121H368.254L348.453 63.2565L370.965 95.1976H355.053Z" fill="black"/>
<path d="M417.412 46.9913H400.911V95.1976H386.885V46.9913H370.384V35.9121H417.412V46.9913Z" fill="black"/>
<path d="M425.716 35.9121H439.388V72.5678L461.075 35.9121H473.215V95.1976H459.543V58.542L437.856 95.1976H425.716V35.9121Z" fill="black"/>
<path d="M519.763 95.1976L499.019 66.0853V95.1976H484.993V35.9121H499.019V63.2565L518.82 35.9121H532.964L513.163 63.2565L535.675 95.1976H519.763Z" fill="black"/>
<path d="M548.015 113.467C542.476 113.467 540.354 111.463 540.354 111.463V100.03C541.887 101.562 544.126 102.387 546.719 102.387C550.608 102.387 552.848 100.619 554.38 97.7906L533.99 35.9121H548.723L561.806 80.4647L574.888 35.9121H588.443L569.938 92.0153C565.931 104.155 561.098 113.467 548.015 113.467Z" fill="black"/>
<path d="M644.328 95.1976V50.8808L629.948 95.1976H618.516L605.668 50.8808V95.1976H593.764V35.9121H614.155L625.705 75.3965L638.552 35.9121H657.764L658 95.1976H644.328Z" fill="black"/>
</svg>
